<?xml version="1.0" encoding="iso-8859-1"?>
<!-- Generator: Adobe Illustrator 19.0.0, SVG Export Plug-In . SVG Version: 6.00 Build 0)  -->
<svg version="1.1" id="Capa_1" xmlns="http://www.w3.org/2000/svg" xmlns:xlink="http://www.w3.org/1999/xlink" x="0px" y="0px"
	 viewBox="0 0 512 512" style="enable-background:new 0 0 512 512;" xml:space="preserve">
<g>
	<g>
		<path d="M511.499,95.186C511.499,42.7,468.799,0,416.313,0c-20.955,0-40.835,6.68-57.49,19.317
			c-11.799,8.953-21.385,20.668-27.914,33.879C307.079,45.229,281.859,41.08,256,41.08s-51.079,4.149-74.908,12.117
			c-6.531-13.211-16.116-24.928-27.914-33.879C136.522,6.68,116.642,0,95.687,0C43.201,0,0.501,42.7,0.501,95.186
			c0,32.546,16.448,62.263,43.019,79.64c-15.035,31.348-22.98,65.92-22.98,101.715c0,62.894,24.492,122.022,68.965,166.495
			S193.106,512,256,512s122.022-24.492,166.495-68.965S491.46,339.434,491.46,276.54c0-35.8-7.947-70.376-22.986-101.728
			C495.025,157.416,511.499,127.638,511.499,95.186z M30.56,95.186c0-35.911,29.216-65.127,65.127-65.127
			c24.238,0,46.343,13.708,57.499,34.538c-23.307,11.33-44.817,26.584-63.681,45.448c-11.854,11.854-22.273,24.758-31.203,38.489
			C41.119,136.507,30.56,116.755,30.56,95.186z M271.029,480.751V398.85c14.672-5.959,25.049-20.358,25.049-37.144
			c0-22.099-17.979-40.078-40.078-40.078s-40.078,17.979-40.078,40.078c0,16.786,10.377,31.185,25.049,37.143v81.901
			c-45.37-7.227-80.157-46.623-80.157-93.996c0-52.485,42.7-95.186,95.186-95.186c52.485,0,95.186,42.7,95.186,95.186
			C351.186,434.128,316.399,473.523,271.029,480.751z M362.984,451.815c11.581-18.974,18.261-41.252,18.261-65.06
			c0-69.06-56.185-125.245-125.245-125.245s-125.245,56.185-125.245,125.245c0,23.808,6.68,46.086,18.261,65.06
			C90.035,415.681,50.599,350.632,50.599,276.54c0-113.259,92.142-205.401,205.401-205.401s205.401,92.142,205.401,205.401
			C461.401,350.632,421.965,415.681,362.984,451.815z M453.692,148.525c-8.928-13.728-19.346-26.629-31.197-38.48
			c-18.865-18.865-40.374-34.119-63.681-45.448c11.157-20.831,33.261-34.538,57.499-34.538c35.911,0,65.127,29.216,65.127,65.127
			C481.44,116.693,470.865,136.485,453.692,148.525z"/>
	</g>
</g>
<g>
	<g>
		<path d="M185.863,205.401c-11.05,0-20.039,8.99-20.039,20.039s8.99,20.039,20.039,20.039c11.05,0,20.039-8.99,20.039-20.039
			S196.913,205.401,185.863,205.401z"/>
	</g>
</g>
<g>
	<g>
		<path d="M326.137,205.401c-11.05,0-20.039,8.99-20.039,20.039s8.99,20.039,20.039,20.039c11.05,0,20.039-8.99,20.039-20.039
			S337.187,205.401,326.137,205.401z"/>
	</g>
</g>
<g>
</g>
<g>
</g>
<g>
</g>
<g>
</g>
<g>
</g>
<g>
</g>
<g>
</g>
<g>
</g>
<g>
</g>
<g>
</g>
<g>
</g>
<g>
</g>
<g>
</g>
<g>
</g>
<g>
</g>
</svg>
